<svg width="34" height="34" viewBox="0 0 34 34" fill="none" xmlns="http://www.w3.org/2000/svg">
<path d="M16.6987 6.96069C14.2129 6.96069 12.1892 9.00288 12.1892 11.4993C12.1892 13.0786 13.0001 14.473 14.2247 15.2858C12.7457 15.7803 11.4659 16.7046 10.5272 17.9138C10.0082 17.5146 9.42835 17.1936 8.80322 16.9636C9.75117 16.2598 10.3706 15.1293 10.3706 13.8587C10.3706 11.7415 8.65826 10.0082 6.55382 10.0082C4.44938 10.0082 2.737 11.7415 2.737 13.8587C2.737 15.13 3.35699 16.2611 4.30574 16.9648C1.79391 17.8917 0 20.3184 0 23.1744V25.1806C0.000257091 25.3335 0.0614328 25.4801 0.169903 25.5878C0.278372 25.6957 0.425145 25.7559 0.578083 25.7554H9.37986C9.40119 25.7577 9.42253 25.759 9.44386 25.7587H23.954C23.9754 25.759 23.9969 25.7577 24.018 25.7554H32.8205C33.1369 25.7541 33.3931 25.4973 33.3939 25.1806V23.1744C33.3939 20.3184 31.6031 17.8917 29.0926 16.9645C30.0413 16.2611 30.6613 15.1298 30.6613 13.8585C30.6613 11.7412 28.9489 10.008 26.8445 10.008C24.7401 10.008 23.0277 11.7412 23.0277 13.8585C23.0277 15.129 23.6474 16.2597 24.5954 16.9633C23.969 17.1939 23.3888 17.5159 22.8691 17.9161C21.9309 16.7062 20.6529 15.7806 19.1739 15.2858C20.3981 14.473 21.2094 13.0786 21.2094 11.4993C21.2094 9.00288 19.1847 6.96069 16.6988 6.96069H16.6987ZM16.6987 8.11224C18.5579 8.11224 20.0567 9.6211 20.0567 11.4993C20.0567 13.3628 18.5812 14.857 16.7426 14.881C16.728 14.881 16.7136 14.8789 16.6987 14.8789C16.6838 14.8789 16.6696 14.881 16.6547 14.881C14.8161 14.8573 13.3417 13.3629 13.3417 11.4993C13.3417 9.62083 14.8392 8.11224 16.6984 8.11224H16.6987ZM6.55389 11.1597C8.02905 11.1597 9.21916 12.357 9.21916 13.8587C9.21916 15.3503 8.04445 16.5424 6.58317 16.5586C6.5734 16.5586 6.56389 16.5576 6.55387 16.5576C6.5441 16.5576 6.53459 16.5586 6.52456 16.5586C5.06328 16.5424 3.88857 15.35 3.88857 13.8587C3.88857 12.357 5.07868 11.1597 6.55384 11.1597H6.55389ZM26.8442 11.1597C28.3193 11.1597 29.5094 12.357 29.5094 13.8587C29.5094 15.3503 28.3347 16.5424 26.8734 16.5586C26.8637 16.5586 26.8542 16.5576 26.8441 16.5576C26.8344 16.5576 26.8249 16.5586 26.8148 16.5586C25.3536 16.5424 24.1788 15.35 24.1788 13.8587C24.1788 12.357 25.3689 11.1597 26.8441 11.1597H26.8442ZM16.6546 16.0325C16.6693 16.0327 16.6837 16.0345 16.6986 16.0345C16.7132 16.0345 16.7276 16.0325 16.7425 16.0325C20.4298 16.0561 23.3807 19.0324 23.3807 22.7582L23.3804 24.6068H10.0172V22.7582C10.0172 19.0321 12.9673 16.0561 16.6541 16.0325H16.6546ZM6.5098 17.7115C6.52445 17.7117 6.53884 17.7135 6.55375 17.7135C6.56866 17.7135 6.5828 17.7115 6.59771 17.7115C7.84487 17.7215 8.98306 18.1515 9.88936 18.871C9.24084 20.0185 8.8658 21.3429 8.8658 22.7585V24.6027H1.15108V23.1744C1.15108 20.1464 3.53183 17.7351 6.50966 17.7112L6.5098 17.7115ZM26.8001 17.7115C26.815 17.7117 26.8291 17.7135 26.844 17.7135C26.8589 17.7135 26.8731 17.7115 26.888 17.7115C29.8658 17.7351 32.2466 20.1467 32.2466 23.1746V24.6027H24.5279L24.5276 22.7585C24.5276 21.3437 24.1536 20.0202 23.5064 18.873C24.4129 18.1526 25.5519 17.7215 26.8001 17.7115H26.8001Z" fill="#103E13"/>
</svg>
