<svg width="34" height="34" viewBox="0 0 34 34" fill="none" xmlns="http://www.w3.org/2000/svg">
<g clip-path="url(#clip0_211_2332)">
<path d="M11.4856 6.08032C13.1273 6.08042 14.7294 6.58543 16.0745 7.52661C17.4197 8.46792 18.4426 9.80053 19.0051 11.343C19.5676 12.8854 19.6424 14.5634 19.219 16.1497C18.7955 17.736 17.8944 19.1542 16.6379 20.2112L16.2151 20.5667L16.719 20.7942C18.7885 21.7307 20.5692 23.2049 21.8762 25.0627L21.8811 25.0696L21.887 25.0764C21.9885 25.2065 22.0627 25.3563 22.1047 25.5159C22.1468 25.6754 22.1553 25.8419 22.1311 26.0051C22.1069 26.1683 22.0497 26.3247 21.9631 26.4651C21.8766 26.6055 21.763 26.7275 21.6282 26.8225C21.4934 26.9174 21.3402 26.9836 21.179 27.0178C21.0175 27.052 20.8505 27.053 20.6887 27.0208C20.5269 26.9885 20.3726 26.9237 20.2366 26.8303H20.2375C20.1015 26.7369 19.985 26.6172 19.8967 26.4778L19.8928 26.4709L19.8879 26.4641L19.7063 26.2141C18.7823 24.9787 17.5912 23.9659 16.22 23.2532C14.7576 22.4931 13.1337 22.096 11.4856 22.0959C9.83734 22.0959 8.21276 22.4931 6.75024 23.2532C5.28768 24.0134 4.02943 25.1151 3.08228 26.4641L3.0813 26.4651C2.96998 26.6249 2.82141 26.7551 2.64868 26.845C2.47587 26.9349 2.28392 26.9822 2.08911 26.9817H2.08716C1.83726 26.9825 1.5932 26.9043 1.38989 26.759L1.38794 26.7581L1.29321 26.6838C1.08173 26.5007 0.939148 26.249 0.890869 25.9709C0.842619 25.6929 0.892133 25.408 1.02954 25.1643L1.09399 25.0627C2.40106 23.2049 4.18171 21.7307 6.25122 20.7942L6.75513 20.5667L6.33228 20.2112C5.07585 19.1542 4.17468 17.736 3.75122 16.1497C3.32785 14.5634 3.4026 12.8854 3.96509 11.343C4.52762 9.80053 5.55052 8.46792 6.89575 7.52661C8.24098 6.58534 9.84375 6.08032 11.4856 6.08032ZM22.1213 6.09009H22.1233C23.766 6.08539 25.3706 6.58787 26.718 7.52759C28.0654 8.46736 29.0904 9.79984 29.6536 11.343C30.2166 12.8861 30.2908 14.5651 29.8655 16.1516C29.44 17.7384 28.5354 19.1557 27.2756 20.2102L26.8508 20.5657L27.3557 20.7942C29.4252 21.7307 31.2059 23.2049 32.5129 25.0627L32.5149 25.0647C32.6077 25.1945 32.6737 25.3418 32.7092 25.4973C32.7448 25.653 32.7492 25.8146 32.7219 25.9719C32.6946 26.1293 32.636 26.2797 32.55 26.4143C32.4641 26.5489 32.3522 26.6651 32.2209 26.7561L32.217 26.759C32.0137 26.9043 31.7697 26.9815 31.5198 26.9807C31.3247 26.9794 31.1323 26.9321 30.9592 26.842C30.786 26.7518 30.6367 26.6215 30.5237 26.4622C29.5747 25.1161 28.3164 24.0171 26.8547 23.2581C25.4841 22.5463 23.972 22.1526 22.4309 22.1047L22.1223 22.0999L22.0012 22.094C21.7226 22.0663 21.4608 21.9431 21.261 21.7434C21.0326 21.515 20.9036 21.2051 20.9036 20.8821C20.9036 20.559 21.0325 20.2492 21.261 20.0208C21.4894 19.7924 21.7993 19.6643 22.1223 19.6643C23.599 19.6642 25.0156 19.0767 26.0598 18.0325C27.1039 16.9882 27.6907 15.5717 27.6907 14.095C27.6906 12.6182 27.104 11.2017 26.0598 10.1575C25.0807 9.17835 23.7742 8.60165 22.3977 8.53345L22.1223 8.52661C21.6132 8.52568 21.106 8.59593 20.6165 8.7356L20.4954 8.76587C20.3769 8.78872 20.2554 8.79342 20.135 8.78052C19.9744 8.76331 19.8185 8.71489 19.677 8.63696C19.5356 8.55911 19.4112 8.45378 19.3108 8.32739C19.2103 8.20085 19.1358 8.05518 19.092 7.89966C19.0483 7.74415 19.0362 7.58149 19.0559 7.42114C19.0756 7.26086 19.1272 7.10631 19.2073 6.96606C19.2874 6.82577 19.3946 6.70222 19.5227 6.60376C19.6507 6.50541 19.7973 6.43315 19.9534 6.39185L19.9592 6.39087C20.6624 6.19068 21.3902 6.08887 22.1213 6.09009ZM12.5715 8.63403C11.4913 8.41917 10.3713 8.52897 9.35376 8.95044C8.33638 9.37191 7.46657 10.0856 6.85474 11.0012C6.24292 11.9169 5.91632 12.9937 5.91626 14.095C5.91626 15.5717 6.50307 16.9882 7.54712 18.0325C8.59143 19.0768 10.0087 19.6643 11.4856 19.6643C12.5866 19.6642 13.6629 19.3374 14.5784 18.7258C15.4941 18.1139 16.2087 17.2434 16.6301 16.2258C17.0514 15.2085 17.1613 14.089 16.9465 13.009C16.7317 11.9289 16.2018 10.9362 15.4231 10.1575C14.6443 9.37872 13.6517 8.84891 12.5715 8.63403Z" fill="#4CAF4F" stroke="#4CAF4F" stroke-width="0.696069"/>
</g>
<defs>
<clipPath id="clip0_211_2332">
<rect width="33.4113" height="33.4113" fill="white"/>
</clipPath>
</defs>
</svg>
