<svg width="34" height="34" viewBox="0 0 34 34" fill="none" xmlns="http://www.w3.org/2000/svg">
<path d="M18.7357 13.2328C18.5185 13.2328 18.3419 13.0565 18.3419 12.839V12.1699C18.3419 11.9527 18.5182 11.7761 18.7357 11.7761C18.9529 11.7761 19.1294 11.9524 19.1294 12.1699V12.839C19.1294 13.0565 18.9529 13.2328 18.7357 13.2328Z" fill="#103E13"/>
<path d="M17.0801 13.2328C16.863 13.2328 16.6864 13.0565 16.6864 12.839V12.1699C16.6864 11.9527 16.8627 11.7761 17.0801 11.7761C17.2973 11.7761 17.4739 11.9524 17.4739 12.1699V12.839C17.4736 13.0565 17.2976 13.2328 17.0801 13.2328Z" fill="#103E13"/>
<path d="M15.4249 13.2328C15.2077 13.2328 15.0311 13.0565 15.0311 12.839V12.1699C15.0311 11.9527 15.2074 11.7761 15.4249 11.7761C15.6421 11.7761 15.8186 11.9524 15.8186 12.1699V12.839C15.8186 13.0565 15.6423 13.2328 15.4249 13.2328Z" fill="#103E13"/>
<path d="M18.7357 15.9693C18.5185 15.9693 18.3419 15.793 18.3419 15.5756V14.9067C18.3419 14.6895 18.5182 14.5129 18.7357 14.5129C18.9529 14.5129 19.1294 14.6892 19.1294 14.9067V15.5756C19.1294 15.793 18.9529 15.9693 18.7357 15.9693Z" fill="#103E13"/>
<path d="M17.0801 15.9693C16.863 15.9693 16.6864 15.793 16.6864 15.5756V14.9067C16.6864 14.6895 16.8627 14.5129 17.0801 14.5129C17.2973 14.5129 17.4739 14.6892 17.4739 14.9067V15.5756C17.4736 15.793 17.2976 15.9693 17.0801 15.9693Z" fill="#103E13"/>
<path d="M15.4249 15.9693C15.2077 15.9693 15.0311 15.793 15.0311 15.5756V14.9067C15.0311 14.6895 15.2074 14.5129 15.4249 14.5129C15.6421 14.5129 15.8186 14.6892 15.8186 14.9067V15.5756C15.8186 15.793 15.6423 15.9693 15.4249 15.9693Z" fill="#103E13"/>
<path d="M18.7357 18.7057C18.5185 18.7057 18.3419 18.5294 18.3419 18.3119V17.6428C18.3419 17.4256 18.5182 17.249 18.7357 17.249C18.9529 17.249 19.1294 17.4253 19.1294 17.6428V18.3119C19.1294 18.5294 18.9529 18.7057 18.7357 18.7057Z" fill="#103E13"/>
<path d="M17.0801 18.7057C16.863 18.7057 16.6864 18.5294 16.6864 18.3119V17.6428C16.6864 17.4256 16.8627 17.249 17.0801 17.249C17.2973 17.249 17.4739 17.4253 17.4739 17.6428V18.3119C17.4736 18.5294 17.2976 18.7057 17.0801 18.7057Z" fill="#103E13"/>
<path d="M15.4249 18.7057C15.2077 18.7057 15.0311 18.5294 15.0311 18.3119V17.6428C15.0311 17.4256 15.2074 17.249 15.4249 17.249C15.6421 17.249 15.8186 17.4253 15.8186 17.6428V18.3119C15.8186 18.5294 15.6423 18.7057 15.4249 18.7057Z" fill="#103E13"/>
<path d="M18.7357 21.4415C18.5185 21.4415 18.3419 21.2652 18.3419 21.0478V20.3786C18.3419 20.1614 18.5182 19.9849 18.7357 19.9849C18.9529 19.9849 19.1294 20.1611 19.1294 20.3786V21.0478C19.1294 21.2652 18.9529 21.4415 18.7357 21.4415Z" fill="#103E13"/>
<path d="M17.0801 21.4415C16.863 21.4415 16.6864 21.2652 16.6864 21.0478V20.3786C16.6864 20.1614 16.8627 19.9849 17.0801 19.9849C17.2973 19.9849 17.4739 20.1611 17.4739 20.3786V21.0478C17.4736 21.2652 17.2976 21.4415 17.0801 21.4415Z" fill="#103E13"/>
<path d="M15.4249 21.4415C15.2077 21.4415 15.0311 21.2652 15.0311 21.0478V20.3786C15.0311 20.1614 15.2074 19.9849 15.4249 19.9849C15.6421 19.9849 15.8186 20.1611 15.8186 20.3786V21.0478C15.8186 21.2652 15.6423 21.4415 15.4249 21.4415Z" fill="#103E13"/>
<path d="M18.7357 24.178C18.5185 24.178 18.3419 24.0018 18.3419 23.7843V23.1154C18.3419 22.8982 18.5182 22.7217 18.7357 22.7217C18.9529 22.7217 19.1294 22.898 19.1294 23.1154V23.7843C19.1294 24.0015 18.9529 24.178 18.7357 24.178Z" fill="#103E13"/>
<path d="M17.0801 24.178C16.863 24.178 16.6864 24.0018 16.6864 23.7843V23.1154C16.6864 22.8982 16.8627 22.7217 17.0801 22.7217C17.2973 22.7217 17.4739 22.898 17.4739 23.1154V23.7843C17.4736 24.0015 17.2976 24.178 17.0801 24.178Z" fill="#103E13"/>
<path d="M15.4249 24.178C15.2077 24.178 15.0311 24.0018 15.0311 23.7843L15.0314 23.1154C15.0314 22.8982 15.2077 22.7217 15.4252 22.7217C15.6423 22.7217 15.8189 22.898 15.8189 23.1154V23.7843C15.8186 24.0015 15.6423 24.178 15.4249 24.178Z" fill="#103E13"/>
<path d="M4.17672 26.9011C4.17672 27.1183 4.353 27.2949 4.57047 27.2949H28.5485C28.7657 27.2949 28.9422 27.1186 28.9422 26.9011C28.9422 26.6839 28.766 26.5074 28.5485 26.5074H27.8206V15.2023C27.8206 14.9851 27.6443 14.8085 27.4269 14.8085L20.9982 14.8088V6.65846C20.9982 6.52062 20.9262 6.39322 20.8087 6.32182C20.6915 6.25016 20.5448 6.24577 20.4229 6.30919L13.114 10.1146C12.9835 10.1824 12.9023 10.317 12.9023 10.4639V17.583H5.82878C5.61159 17.583 5.43503 17.7593 5.43503 17.9768V26.5074H4.56959C4.3524 26.5072 4.17639 26.6834 4.17639 26.9009L4.17672 26.9011ZM20.9983 20.7723H27.0335V26.5077L20.9983 26.5074V20.7723ZM20.9983 18.0361H27.0335V19.9851L20.9983 19.9848V18.0361ZM20.9983 15.5959H27.0335V17.2492H20.9983V15.5959ZM13.6893 10.7029L20.2106 7.30749V26.5071H13.6893V10.7029ZM8.16896 23.3625C8.16896 22.5454 8.81641 21.8804 9.61241 21.8804C10.4084 21.8804 11.0561 22.5451 11.0561 23.3625V26.5076H8.16896V23.3625ZM6.2225 18.3704H12.9021V26.5074H11.8436V23.3624C11.8436 22.1111 10.8431 21.093 9.61241 21.093C8.3823 21.093 7.38176 22.1109 7.38176 23.3624V26.5074H6.2225V18.3704Z" fill="#103E13"/>
</svg>
