<svg width="34" height="34" viewBox="0 0 34 34" fill="none" xmlns="http://www.w3.org/2000/svg">
<path d="M27.8428 29.235V26.4507C27.8428 24.9739 27.2561 23.5575 26.2118 22.5132C25.1675 21.4689 23.7511 20.8822 22.2743 20.8822H20.8821C20.5129 20.8822 20.1588 20.7355 19.8977 20.4744C19.6367 20.2134 19.49 19.8593 19.49 19.49V12.5293C19.49 11.7909 19.1966 11.0827 18.6745 10.5606C18.1523 10.0384 17.4442 9.74507 16.7057 9.74507C15.9673 9.74507 15.2591 10.0384 14.7369 10.5606C14.2148 11.0827 13.9214 11.7909 13.9214 12.5293V25.0586L10.5803 20.6038C10.321 20.258 9.98466 19.9773 9.59805 19.784C9.21144 19.5907 8.78513 19.49 8.35288 19.49H7.74869C6.54449 19.49 5.5686 20.4659 5.5686 21.6701C5.5686 22.0655 5.6758 22.4539 5.87905 22.7922L9.74502 29.235M16.7057 5.56865V4.17651V5.56865ZM25.0585 13.9215H26.4507H25.0585ZM6.96074 13.9215H8.35288H6.96074ZM10.2225 7.4383L9.23828 6.45405L10.2225 7.4383ZM23.1889 7.4383L24.1731 6.45405L23.1889 7.4383Z" fill="#4CAF4F"/>
<path d="M27.8428 29.235V26.4507C27.8428 24.9739 27.2561 23.5575 26.2118 22.5132C25.1675 21.4689 23.7511 20.8822 22.2743 20.8822H20.8821C20.5129 20.8822 20.1588 20.7355 19.8977 20.4744C19.6367 20.2134 19.49 19.8593 19.49 19.49V12.5293C19.49 11.7909 19.1966 11.0827 18.6745 10.5606C18.1523 10.0384 17.4442 9.74507 16.7057 9.74507V9.74507C15.9673 9.74507 15.2591 10.0384 14.7369 10.5606C14.2148 11.0827 13.9214 11.7909 13.9214 12.5293V25.0586L10.5803 20.6038C10.321 20.258 9.98466 19.9773 9.59805 19.784C9.21144 19.5907 8.78513 19.49 8.35288 19.49H7.74869C6.54449 19.49 5.5686 20.4659 5.5686 21.6701C5.5686 22.0655 5.6758 22.4539 5.87905 22.7922L9.74502 29.235M16.7057 5.56865V4.17651M25.0585 13.9215H26.4507M6.96074 13.9215H8.35288M10.2225 7.4383L9.23828 6.45405M23.1889 7.4383L24.1731 6.45405" stroke="#4CAF4F" stroke-width="1.39214" stroke-linecap="round" stroke-linejoin="round"/>
</svg>
