<svg width="34" height="34" viewBox="0 0 34 34" fill="none" xmlns="http://www.w3.org/2000/svg">
<path d="M6.78638 5.56812H26.6243C27.7779 5.56812 28.8846 6.02683 29.7004 6.84253C30.5163 7.65834 30.9748 8.76498 30.9749 9.9187V23.4919C30.9749 24.6457 30.5163 25.7523 29.7004 26.5681C28.8846 27.384 27.7781 27.8425 26.6243 27.8425H6.78638C5.63265 27.8425 4.52602 27.3839 3.71021 26.5681C2.89452 25.7523 2.43579 24.6456 2.43579 23.4919V9.9187C2.43585 8.76498 2.89439 7.65834 3.71021 6.84253C4.52602 6.02672 5.63265 5.56818 6.78638 5.56812ZM3.82837 23.4919C3.82837 24.2764 4.13997 25.029 4.69458 25.5837C5.24931 26.1385 6.00187 26.4509 6.78638 26.4509H26.6243C27.4089 26.4509 28.1613 26.1385 28.7161 25.5837C29.2708 25.029 29.5833 24.2765 29.5833 23.4919V13.2253H3.82837V23.4919ZM21.926 20.1863H25.0588C25.2433 20.1864 25.4206 20.259 25.551 20.3894C25.6815 20.5198 25.754 20.6971 25.7542 20.8816C25.7542 21.066 25.6813 21.2433 25.551 21.3738C25.4206 21.5042 25.2433 21.5778 25.0588 21.5779H21.926C21.7414 21.5779 21.5644 21.5043 21.4338 21.3738C21.3035 21.2433 21.2297 21.0661 21.2297 20.8816C21.2299 20.6971 21.3034 20.5198 21.4338 20.3894C21.5643 20.259 21.7415 20.1863 21.926 20.1863ZM6.78638 6.96069C6.00187 6.96075 5.24931 7.27217 4.69458 7.8269C4.13985 8.38164 3.82843 9.13419 3.82837 9.9187V11.8328H29.5833V9.9187C29.5832 9.13419 29.2708 8.38164 28.7161 7.8269C28.1613 7.27229 27.4087 6.96069 26.6243 6.96069H6.78638Z" fill="#4CAF4F" stroke="#4CAF4F" stroke-width="0.696069"/>
</svg>
